<?xml version="1.0" encoding="UTF-8"?>
<svg id="Layer_1" xmlns="http://www.w3.org/2000/svg" viewBox="0 0 2714.26 1828.34">
  <defs>
    <style>
      .cls-1 {
        fill: #2d2d2d;
      }
    </style>
  </defs>
  <g>
    <path class="cls-1" d="M766.25,414.09c-.1-.64-.5-2.07-.47-3.5.03-1.38.51-2.75.99-5.13h12.24c104.07,0,208.14-.05,312.2.09,9.2.01,18.56.51,27.58,2.21,22.56,4.25,38.97,16.98,48.93,37.87,17.04,35.74,34.17,71.44,51.26,107.15,71.24,148.88,142.47,297.75,213.72,446.62,1.88,3.92,3.93,7.76,6.65,13.14,2.19-3.64,3.81-5.87,4.97-8.31,63.37-132.95,126.89-265.83,189.95-398.92,28.41-59.97,11.73-127.32-40.15-166.02-17.62-13.14-37.64-20.28-59.76-23.52-.38-1.68-.98-3.38-1.1-5.1-.1-1.35.39-2.75.7-4.62h367.14v9.78c-27.62,4.56-53.95,12.55-81.08,26.51,3.53.56,4.67,1.02,5.73.87,57.12-8.34,114.22-16.74,171.33-25.13,27.09-3.98,54.18-7.94,81.28-11.91.73-.11,1.47-.16,2.21-.23,28.19-2.78,40.79,7.66,43.08,35.71.06.7.45,1.38.94,2.82,2.27-.67,4.7-1.06,6.85-2.07,52.88-24.97,108.14-42.29,165.99-51,55.37-8.34,110.6-9.52,165.3,5.05,84.85,22.6,138.24,76.58,160.55,161.33,8.83,33.53,11.28,67.82,11.28,102.35,0,195.14.05,390.28-.09,585.41-.01,16.96,2.26,33.25,9.95,48.44,13.22,26.12,33.82,43.57,62.09,51.71,2.11.61,4.2,1.26,6.82,2.05.34,1.78.83,3.49.93,5.23.08,1.42-.32,2.88-.59,4.98h-448.9v-9.63c2.35-.88,4.65-1.92,7.04-2.61,27-7.79,47.18-24.13,60.65-48.68,7.42-13.53,11.22-28.13,11.53-43.58.1-5.18.07-10.37.07-15.55,0-185.14.19-370.28-.18-555.42-.07-32.16,9.36-60.53,28.82-85.55,10.89-14,23.33-26.78,34.77-40.38,8.33-9.9,16.7-19.85,24.03-30.47,7.63-11.06,12.21-23.51,13.17-37.24,1.33-18.94-5.69-33.98-20.22-45.71-17.21-13.9-37.57-20.46-58.9-24.27-53.88-9.61-106.94-4.02-159.42,9.63-25.11,6.53-49.4,15.44-73.14,25.97-7.05,3.13-9.8,7.05-9.7,14.99.45,35.17.19,70.35.19,105.53,0,222.91.02,445.82-.04,668.73,0,12.65.49,25.18,4.64,37.27,11.1,32.35,32.89,53.82,65.51,64.25,2.46.79,4.94,1.46,7.41,2.23.34.1.61.42,1.19.84.26.73.9,1.73.92,2.75.04,2.14-.25,4.28-.44,6.99h-449.28v-9.75c1.81-.74,3.71-1.78,5.75-2.32,27.62-7.39,48.06-23.89,61.81-48.78,7.47-13.53,10.93-28.21,11.63-43.59.13-2.96.09-5.92.09-8.89,0-225.5-.02-451,.04-676.5,0-21.52-3.7-41.96-15.51-60.39-9.18-14.33-21.26-25.47-36.28-33.55-5.44-2.93-9.9-3.26-15.22.75-54.9,41.38-101.02,90.47-130.96,152.92-103.96,216.9-207.42,434.05-311.06,651.1-32.85,68.79-65.57,137.64-98.54,206.36-20.47,42.66-30.15,87.53-25.78,134.65,6.86,74.02,39.17,133.53,103.74,173.07,29.13,17.84,61.68,24.77,95.51,25.2,24.42.31,38.9-17.72,35.05-41.72-1.95-12.14-7.67-22.42-15.2-31.65-9.35-11.47-19.44-22.34-29.09-33.57-6.03-7.02-12.05-14.06-17.71-21.37-38.57-49.82-36.1-109.8-7.34-158.26,32.29-54.41,94.7-82.06,157.01-70.27,60.17,11.39,109.04,60.83,119.47,121.5,8.36,48.63-4.21,92.83-31.82,132.57-42.74,61.51-102.18,97.94-175.85,109.72-66.46,10.63-125.69-6.11-175.1-52.93-34.69-32.87-55.66-73.57-64.97-120.16-11.16-55.82-4.56-109.82,19.39-161.45,18.53-39.94,37.5-79.69,56.94-119.2,4.35-8.84,4.38-15.71.12-24.61-128.12-268.1-255.96-536.34-383.85-804.56-7.64-16.03-15.31-32.06-23-48.07-13.92-28.97-35.36-51.03-63.23-66.56-9.89-5.51-21.04-8.75-33.17-13.66Z"/>
    <path class="cls-1" d="M894.05,1015.34c3.96.18,6.81.31,10.31.47v342.37H.69c-.19-3.19-.38-6.19-.58-9.44,8.84-1.39,16.94-2.16,24.8-3.97,53.38-12.35,90.13-57.45,91.91-112.48.12-3.7.07-7.4.07-11.11,0-361.37,0-722.74,0-1084.1,0-21.7-2.58-42.91-12.98-62.39C83.14,35.79,50.85,14.04,6.79,10.03c-1.47-.13-2.94-.31-4.4-.53-.33-.05-.64-.33-1.62-.86C.58,7.77.09,6.43.01,5.06-.07,3.62.26,2.16.47,0h574.85c.28,2.7.56,5.42.9,8.72-2.75.52-4.82,1.11-6.91,1.27-34.64,2.55-63.37,16.8-85.43,43.71-17.54,21.4-26.06,46.15-26.05,73.85.03,67.39.03,134.77.03,202.16,0,333.6,0,667.2.03,1000.8,0,5.44.43,10.88.7,17.12,102.52-.15,194.29-29.51,275.11-90.96,80.89-61.5,133.8-142.16,160.35-241.32Z"/>
  </g>
  <g>
    <path d="M2315.4,1528.92c4.92-21.02,9.83-42.04,14.77-63.05.89-3.79,1.79-7.58,2.9-11.3,2.12-7.12,6.78-5.68,12.75-3.26-1.07,4.95-1.91,9.75-3.15,14.45-6.51,24.74-13.09,49.46-19.7,74.18-1.38,5.16-1.17,11.47-9.19,11.76-8.04.29-8.41-5.96-9.85-11.08-5.74-20.34-11.23-40.75-16.95-61.09-1.01-3.6-2.71-7.02-5.23-13.44-2.7,7.03-4.69,11.25-5.96,15.68-5.79,20.32-11.45,40.69-16.99,61.08-1.44,5.31-3.69,10.34-9.86,8.44-3.35-1.03-7.23-5.09-8.16-8.52-8.21-30.02-15.8-60.2-23.57-90.3,11.25-3.53,11.74-3.49,14.3,7.19,4.79,20.01,9.13,40.13,13.86,60.16.81,3.43,2.67,6.62,5.65,13.75,8.44-30,15.77-56.03,23.03-81.82,13.78-3.01,14.11-3.11,17.21,7.6,5.1,17.63,9.67,35.41,14.55,53.1,1.56,5.66,3.4,11.25,5.11,16.87,1.5-.13,3-.26,4.5-.4Z"/>
    <path d="M2696.6,1685.18c16.77,13.55,6.23,33.09,13.52,48.84-7.75,2.67-12.83,2.05-13.69-6.49-.61-6.06-.77-12.17-1.3-18.24-1.09-12.6-4.84-17.3-17.14-18.22-12-.89-24.12-.19-38.44-.19,0,13.26-.09,24.74.03,36.22.07,6.44-2.47,9.33-9.03,7.64-3.35-11.85-4.35-71.72-1.46-101.32,19.89-.59,40.28-2.65,60.28,1.2,16.73,3.22,24.23,22.69,16.23,38.45-1.97,3.87-5.23,7.09-9.01,12.09ZM2640.73,1679.89c14.07,0,27.21.78,40.21-.25,10.09-.8,15.39-8.32,15.43-18.36.04-10.06-5.15-17.49-15.39-18.35-12.98-1.08-26.12-.26-40.25-.26v37.22Z"/>
    <path d="M2147.65,1660.08c-6.75,3.58-9.98,1.02-12.97-4.03-8.58-14.49-22.07-17.75-37.5-14.85-14.93,2.81-22.23,13.42-26.25,27.14-3.92,13.37-2.93,26.56,1.82,39.32,6.07,16.3,22.48,23.96,41.11,19.98,17.1-3.65,25.13-14.82,24.23-33.69-9.26-6.46-22.08,2.74-31.18-6.56,9.48-6.49,20.21-7.33,42.82-3.24,2.41,16.74,1.37,33.67.53,50.61-1.36.23-2.72.45-4.08.68-2.38-3.31-4.75-6.62-7.04-9.8-1.36.13-2.66-.15-3.39.37-20.39,14.51-40.36,16.48-57.26,5.55-16.87-10.92-25.61-35.79-20.94-59.59,6.43-32.77,34.7-49.91,64.6-39.16,13.51,4.85,19.39,11.02,25.49,27.26Z"/>
    <path d="M1857.87,1500.51c-.27-45.48,36.42-62.72,69.21-51.02,22.07,7.87,34.88,35.14,30.03,62.32-5.03,28.19-26.35,45.02-54.25,42.79-27.36-2.18-44.95-23.33-44.99-54.08ZM1945.76,1499.77c-.27-22.99-12.48-39.52-31.59-42.75-20.62-3.48-38.2,8.77-42.9,29.9-5.82,26.16,5.69,51.06,25.95,56.11,1.07.27,2.19.36,3.28.53,26.61,4.12,45.6-14.26,45.26-43.79Z"/>
    <path d="M2330.05,1712.27v-82.09c5.59,4.56,8.4,6.11,10.07,8.47,1.11,1.57.79,4.29.79,6.5,0,27.22-.05,54.44-.18,81.66-.01,2.15-.79,4.29-1.25,6.6-8.31,4.61-13.37,1.22-17.73-5.81-12-19.35-24.21-38.57-36.42-57.78-3.16-4.96-6.64-9.72-12.08-17.65-.97,7.74-1.89,11.78-1.92,15.83-.17,18.89-.01,37.78-.15,56.66-.04,5.56.22,11.88-11.13,9.58-.18-33.04-.23-66.5.07-99.36,10.47-4.13,15.83-.51,20.48,7.36,11.59,19.59,23.81,38.81,35.88,58.12,2.83,4.54,6.05,8.83,9.1,13.24,1.49-.44,2.99-.89,4.48-1.33Z"/>
    <path d="M2578.1,1501.15c15.13,13.95,8.65,32.43,12.52,49.07-8.11,2.75-12.56,1.25-12.95-7.22-.31-6.66-.13-13.39-1.12-19.95-1.57-10.35-5.83-14.9-16.33-15.65-12.05-.86-24.22-.2-36.19-.2-8.35,14.4,2.25,30.75-7.27,43.65-.57.77-3.1.1-4.62.1-3.64-13.04-4.13-82.63-.46-100.97,18.81-1.51,38.21-2.44,57.25.39,18.3,2.72,26.59,22.04,18,38.72-1.99,3.87-5.17,7.13-8.84,12.07ZM2523.07,1458.54c-3.02,13.6-4.88,25.61,1.19,37.85,12.51,0,24.13.6,35.66-.17,11.5-.77,17.37-7.44,17.71-18.01.38-11.49-5.55-18.67-17.87-19.5-12.01-.81-24.12-.18-36.71-.18Z"/>
    <path d="M1889.26,1734.64c-26.25,0-49.99,0-73.74,0-3.64-11.27-4.73-73.19-1.74-98.88,12.43-3.7,56.78-4.07,71.95-.59,1.86,5.6-1.57,6.97-5.97,7.04-11.68.18-23.36.05-35.03.23-5.98.09-11.94.56-19.01.91-.52,6.02-1.09,10.82-1.29,15.64-.21,4.95-.05,9.92-.05,16.84,6.17.54,11.43,1.28,16.69,1.39,10.01.22,20.02-.05,30.03.15,4.17.08,10.15-.96,9.39,5.74-.22,1.93-5.61,4.45-8.76,4.66-9.41.63-18.89.25-28.35.26-5.45,0-10.9,0-17.67,0v34.88c10.04,5.85,21.36,2.64,32.11,2.88,24.22.53,24.23.17,31.46,8.84Z"/>
    <path d="M2403.56,1677.3c9.09,0,17.27,0,25.45,0,7.23,0,14.46-.06,21.69.09,3.85.08,9.02.04,7.89,5.53-.45,2.19-5.53,4.76-8.58,4.86-14.92.5-29.86.23-46.23.23v36.19c20.65,1.47,40.8,2.89,60.95,4.47.22.02.29,2.02.43,3.09-9.95,4.7-51.4,5.79-73.67,1.75v-99.97c23.96-1.21,47.94-.45,71.23-.55,2.59,7.48-.39,9.2-5.02,9.25-11.68.14-23.35.04-35.03.21-5.98.09-11.96.56-19.08.92v33.93Z"/>
    <path d="M2650.07,1504.24v35.4c20.56,6.43,42.52-1.44,64.19,5.48-2.67,3.38-3.62,5.66-4.59,5.67-23.19.2-46.38.15-70.81.15v-100.61h70.25c2.22,6.77-1.36,8-5.66,8.07-11.11.2-22.22.16-33.32.21-5.99.02-11.98,0-19.33,0v34.02c9.01.3,17.8-.11,26.37,1.06,9.71,1.32,20.79-5.16,29.06,4.77-7.93,12.42-19.97,3.62-29.93,5.49-7.92,1.49-16.34.3-26.22.3Z"/>
    <path d="M1743.75,1519.43c2.18,3.18,5.13,6.07,6.4,9.58,7.1,19.63,40.02,18.74,50.9,9.78,9.41-7.75,8.17-21.87-2.82-27.72-4.82-2.57-10.33-4-15.67-5.44-6.96-1.88-14.16-2.91-21.08-4.92-13.33-3.87-19.06-10.29-19.86-21.48-.92-12.88,3.71-23.31,15.53-28.84,15.62-7.3,31.49-6.11,46.28,2.63,9.04,5.34,11.06,12.25,8.67,23.5-6.25,1.89-7.08-3.39-9.42-6.95-8.64-13.12-25.43-17.69-39.39-10.93-7.33,3.55-10.69,9.46-10.36,17.44.33,7.87,5.21,11.89,12.36,13.64,9.71,2.36,19.48,4.45,29.16,6.94,16.89,4.34,23.83,12.4,23.92,27.37.09,14.79-7.06,23.6-23.09,28.37-12.08,3.59-24.19,3.55-36.03-.73-14.54-5.25-20.6-15.2-18.96-30.15,1.15-.69,2.31-1.38,3.46-2.08Z"/>
    <path d="M2002.29,1634.71c9.88-2.76,9.66,3.09,9.71,8.05.17,17.8.11,35.59.12,53.39,0,12.71,0,25.42,0,37.31-10.23,4.41-15.04.3-19.34-6.69-12.52-20.36-25.39-40.52-38.23-60.68-2.51-3.94-5.55-7.54-9.9-10.85-4.34,26.53-.85,53.02-3.47,78.68-9.4,2.93-9.32-2.95-9.36-7.88-.19-20.58-.12-41.16-.15-61.73,0-9.9,0-19.81,0-28.98,9.89-4.26,15.26-1.79,19.73,5.65,12.02,20.02,24.48,39.77,36.86,59.56,2.8,4.48,5.97,8.72,10.69,12.67,3.95-26.51,1.07-52.98,3.34-78.5Z"/>
    <path d="M2583.4,1730c-.78,1.95-.93,3.53-1.62,3.83-1.98.85-4.19,1.61-6.31,1.62-21.04.11-42.08.07-62.63.07-4.4-14.04-5.01-83.14-1.07-101.42h69.94c2.07,6.48-1.03,8.05-5.59,8.11-10.57.14-21.14.15-31.71.18-6.62.02-13.23,0-19.25,0-5.73,13.29-5.92,17.75-1.73,33.53,17.78,4.06,36.89-1.83,56.59,4-8.14,13.27-19.12,6.77-27.86,7.85-9.25,1.13-18.74.25-28.31.25-4.94,12.45-3.67,23.67-1.2,37.3,10.52.21,20.9-.08,31.18.77,9.8.8,20.61-3.65,29.56,3.9Z"/>
    <path d="M2432.26,1450.79c11.84,32.73,23.67,65.47,35.71,98.75-8.06,3.84-12.18,2.09-14.54-5.44-2.29-7.3-5.29-14.37-8.45-22.79-6.58,0-12.71.78-18.58-.15-18.08-2.84-29.93,2.61-33.18,22.05-.98,5.86-3.96,10.67-12.52,6.66.4-2.34.45-5,1.34-7.36,10.29-27.52,21.05-54.86,30.87-82.54,3.25-9.15,7.89-12.77,19.36-9.2ZM2440.82,1509.55c-6.41-16.03-8.39-30.7-18.25-46.24-6.18,16.9-11.18,30.6-16.89,46.24h35.14Z"/>
    <path d="M2014.05,1458.61v32.91c16.78,5.47,34.49-2.1,51.64,5.28-6.85,11.7-16.63,6.46-24.42,7.24-8.66.87-17.48.2-27.99.2-.31,14.07-.49,26.13-.88,38.18-.17,5.21-.64,10.54-10.13,7.69-2.07-32.43-.81-65.4-.82-99.68h68.72c2.15,5.76-.41,7.87-5.17,7.96-10.54.19-21.09.18-31.63.23-5.94.03-11.89,0-19.31,0Z"/>
    <path d="M2137.3,1459.84c-12.92-.9-23.21-1.62-36.57-2.56,3.81-4.01,5.6-7.57,7.45-7.6,23.87-.38,47.76-.38,71.63-.02,1.91.03,3.76,3.48,8.39,8.07-14.6.64-25.41,1.12-38.32,1.69v89.86c-10.9,4.34-12.53-.74-12.54-7.78-.03-20.55-.03-41.1-.04-61.65,0-6.04,0-12.08,0-20Z"/>
    <path d="M2207.44,1634.1c4.31,14.01,4.3,86.54-.82,103.1-3.05-3.3-6.59-5.35-6.95-7.86-.94-6.55-.58-13.31-.59-19.98-.02-21.7-.1-43.4.12-65.1.05-5.16-1.14-12.2,8.24-10.17Z"/>
  </g>
</svg>